<mxfile host="app.diagrams.net" modified="2023-05-28T08:50:14.484Z" agent="Mozilla/5.0 (X11; Linux x86_64) AppleWebKit/537.36 (KHTML, like Gecko) Chrome/90.0.4430.93 Safari/537.36" etag="6kPjW3q4n5WzFqlf2f76" version="21.3.4" type="github" pages="2">
  <diagram id="0_uWrMZglboZPw79OCQA" name="BookTTSArchitecture">
    <mxGraphModel dx="1666" dy="1773" grid="1" gridSize="10" guides="1" tooltips="1" connect="1" arrows="1" fold="1" page="1" pageScale="1" pageWidth="1920" pageHeight="1200" math="0" shadow="0">
      <root>
        <mxCell id="0" />
        <mxCell id="1" parent="0" />
        <mxCell id="toMGbnep0iSQmidmhHXx-11" style="edgeStyle=orthogonalEdgeStyle;rounded=0;orthogonalLoop=1;jettySize=auto;html=1;" parent="1" source="toMGbnep0iSQmidmhHXx-1" target="toMGbnep0iSQmidmhHXx-10" edge="1">
          <mxGeometry relative="1" as="geometry" />
        </mxCell>
        <mxCell id="toMGbnep0iSQmidmhHXx-1" value="&lt;b&gt;BookTTS&lt;br&gt;website&lt;/b&gt;" style="rounded=1;whiteSpace=wrap;html=1;" parent="1" vertex="1">
          <mxGeometry x="1000" y="500" width="120" height="60" as="geometry" />
        </mxCell>
        <mxCell id="toMGbnep0iSQmidmhHXx-27" style="edgeStyle=none;rounded=0;orthogonalLoop=1;jettySize=auto;html=1;" parent="1" source="toMGbnep0iSQmidmhHXx-6" target="toMGbnep0iSQmidmhHXx-12" edge="1">
          <mxGeometry relative="1" as="geometry" />
        </mxCell>
        <mxCell id="toMGbnep0iSQmidmhHXx-6" value="&lt;b&gt;Phone App&lt;/b&gt;" style="sketch=0;aspect=fixed;pointerEvents=1;shadow=0;dashed=0;html=1;strokeColor=none;labelPosition=center;verticalLabelPosition=bottom;verticalAlign=top;align=center;fillColor=#00188D;shape=mxgraph.mscae.enterprise.android_phone" parent="1" vertex="1">
          <mxGeometry x="870" y="269" width="48.6" height="81" as="geometry" />
        </mxCell>
        <mxCell id="toMGbnep0iSQmidmhHXx-9" style="edgeStyle=orthogonalEdgeStyle;rounded=0;orthogonalLoop=1;jettySize=auto;html=1;entryX=0;entryY=0.5;entryDx=0;entryDy=0;" parent="1" source="toMGbnep0iSQmidmhHXx-8" target="toMGbnep0iSQmidmhHXx-1" edge="1">
          <mxGeometry relative="1" as="geometry" />
        </mxCell>
        <mxCell id="toMGbnep0iSQmidmhHXx-8" value="Book.pdf" style="shape=image;html=1;verticalAlign=top;verticalLabelPosition=bottom;labelBackgroundColor=#ffffff;imageAspect=0;aspect=fixed;image=https://cdn2.iconfinder.com/data/icons/boxicons-solid-vol-2/24/bxs-file-pdf-128.png" parent="1" vertex="1">
          <mxGeometry x="840" y="492" width="76" height="76" as="geometry" />
        </mxCell>
        <mxCell id="toMGbnep0iSQmidmhHXx-13" style="edgeStyle=orthogonalEdgeStyle;rounded=0;orthogonalLoop=1;jettySize=auto;html=1;" parent="1" source="toMGbnep0iSQmidmhHXx-10" target="toMGbnep0iSQmidmhHXx-12" edge="1">
          <mxGeometry relative="1" as="geometry">
            <Array as="points">
              <mxPoint x="1230" y="310" />
            </Array>
          </mxGeometry>
        </mxCell>
        <mxCell id="toMGbnep0iSQmidmhHXx-10" value="Book.wav" style="sketch=0;pointerEvents=1;shadow=0;dashed=0;html=1;strokeColor=none;fillColor=#505050;labelPosition=center;verticalLabelPosition=bottom;verticalAlign=top;outlineConnect=0;align=center;shape=mxgraph.office.concepts.sound_file;" parent="1" vertex="1">
          <mxGeometry x="1200" y="505" width="40" height="50" as="geometry" />
        </mxCell>
        <mxCell id="toMGbnep0iSQmidmhHXx-12" value="" style="dashed=0;outlineConnect=0;html=1;align=center;labelPosition=center;verticalLabelPosition=bottom;verticalAlign=top;shape=mxgraph.weblogos.youtube;fillColor=#FF2626;gradientColor=#B5171F" parent="1" vertex="1">
          <mxGeometry x="1014.3" y="280" width="157.20000000000002" height="65.8" as="geometry" />
        </mxCell>
        <mxCell id="toMGbnep0iSQmidmhHXx-14" value="Upload" style="text;html=1;align=center;verticalAlign=middle;resizable=0;points=[];autosize=1;strokeColor=none;fillColor=none;" parent="1" vertex="1">
          <mxGeometry x="1250" y="400" width="50" height="20" as="geometry" />
        </mxCell>
        <mxCell id="toMGbnep0iSQmidmhHXx-17" value="Upload" style="text;html=1;align=center;verticalAlign=middle;resizable=0;points=[];autosize=1;strokeColor=none;fillColor=none;" parent="1" vertex="1">
          <mxGeometry x="720" y="500" width="50" height="20" as="geometry" />
        </mxCell>
        <mxCell id="toMGbnep0iSQmidmhHXx-24" style="edgeStyle=none;rounded=0;orthogonalLoop=1;jettySize=auto;html=1;exitX=1;exitY=0.75;exitDx=0;exitDy=0;entryX=0;entryY=0.5;entryDx=0;entryDy=0;" parent="1" source="toMGbnep0iSQmidmhHXx-23" target="toMGbnep0iSQmidmhHXx-8" edge="1">
          <mxGeometry relative="1" as="geometry">
            <mxPoint x="829.9999999999998" y="530" as="targetPoint" />
          </mxGeometry>
        </mxCell>
        <mxCell id="toMGbnep0iSQmidmhHXx-25" style="edgeStyle=none;rounded=0;orthogonalLoop=1;jettySize=auto;html=1;exitX=1;exitY=0.75;exitDx=0;exitDy=0;entryX=0;entryY=0.5;entryDx=0;entryDy=0;entryPerimeter=0;" parent="1" source="toMGbnep0iSQmidmhHXx-23" target="toMGbnep0iSQmidmhHXx-6" edge="1">
          <mxGeometry relative="1" as="geometry" />
        </mxCell>
        <mxCell id="toMGbnep0iSQmidmhHXx-23" value="" style="shape=actor;whiteSpace=wrap;html=1;" parent="1" vertex="1">
          <mxGeometry x="590" y="370" width="40" height="60" as="geometry" />
        </mxCell>
        <mxCell id="toMGbnep0iSQmidmhHXx-26" value="Listen" style="text;html=1;align=center;verticalAlign=middle;resizable=0;points=[];autosize=1;strokeColor=none;fillColor=none;" parent="1" vertex="1">
          <mxGeometry x="730" y="330" width="50" height="20" as="geometry" />
        </mxCell>
      </root>
    </mxGraphModel>
  </diagram>
  <diagram id="FmQrCL9OVDDqEnt5LTnp" name="BookTTSSiteMap">
    <mxGraphModel dx="1666" dy="1773" grid="1" gridSize="10" guides="1" tooltips="1" connect="1" arrows="1" fold="1" page="1" pageScale="1" pageWidth="1920" pageHeight="1200" math="0" shadow="0">
      <root>
        <mxCell id="0" />
        <mxCell id="1" parent="0" />
        <mxCell id="5hqwWll7S3vFXh1bja4X-2" value="TextToSpeechService" style="rounded=1;whiteSpace=wrap;html=1;" parent="1" vertex="1">
          <mxGeometry x="1180" y="180" width="180" height="60" as="geometry" />
        </mxCell>
        <mxCell id="lK4s5zcnrLTSdLD98zfU-2" value="Index" style="swimlane;fontStyle=0;childLayout=stackLayout;horizontal=1;startSize=30;horizontalStack=0;resizeParent=1;resizeParentMax=0;resizeLast=0;collapsible=1;marginBottom=0;whiteSpace=wrap;html=1;" vertex="1" parent="1">
          <mxGeometry x="460" y="180" width="290" height="180" as="geometry" />
        </mxCell>
        <mxCell id="lK4s5zcnrLTSdLD98zfU-3" value="Show all uploaded files" style="text;strokeColor=none;fillColor=none;align=left;verticalAlign=middle;spacingLeft=4;spacingRight=4;overflow=hidden;points=[[0,0.5],[1,0.5]];portConstraint=eastwest;rotatable=0;whiteSpace=wrap;html=1;" vertex="1" parent="lK4s5zcnrLTSdLD98zfU-2">
          <mxGeometry y="30" width="290" height="30" as="geometry" />
        </mxCell>
        <mxCell id="lK4s5zcnrLTSdLD98zfU-4" value="Show uploaded file status (converting, uploading, etc)" style="text;strokeColor=none;fillColor=none;align=left;verticalAlign=middle;spacingLeft=4;spacingRight=4;overflow=hidden;points=[[0,0.5],[1,0.5]];portConstraint=eastwest;rotatable=0;whiteSpace=wrap;html=1;" vertex="1" parent="lK4s5zcnrLTSdLD98zfU-2">
          <mxGeometry y="60" width="290" height="90" as="geometry" />
        </mxCell>
        <mxCell id="lK4s5zcnrLTSdLD98zfU-5" value="Item 3" style="text;strokeColor=none;fillColor=none;align=left;verticalAlign=middle;spacingLeft=4;spacingRight=4;overflow=hidden;points=[[0,0.5],[1,0.5]];portConstraint=eastwest;rotatable=0;whiteSpace=wrap;html=1;" vertex="1" parent="lK4s5zcnrLTSdLD98zfU-2">
          <mxGeometry y="150" width="290" height="30" as="geometry" />
        </mxCell>
      </root>
    </mxGraphModel>
  </diagram>
</mxfile>
